<mxfile host="app.diagrams.net" modified="2022-04-10T14:15:08.433Z" agent="5.0 (Windows NT 10.0; Win64; x64) AppleWebKit/537.36 (KHTML, like Gecko) Chrome/100.0.4896.75 Safari/537.36" etag="6MYdyhyGriCwUQcT94MG" version="17.4.2" type="github">
  <diagram id="C5RBs43oDa-KdzZeNtuy" name="Page-1">
    <mxGraphModel dx="861" dy="452" grid="1" gridSize="10" guides="1" tooltips="1" connect="1" arrows="1" fold="1" page="1" pageScale="1" pageWidth="827" pageHeight="1169" math="0" shadow="0">
      <root>
        <mxCell id="WIyWlLk6GJQsqaUBKTNV-0" />
        <mxCell id="WIyWlLk6GJQsqaUBKTNV-1" parent="WIyWlLk6GJQsqaUBKTNV-0" />
        <mxCell id="nJoEVqWm0-G-OqzpJAwN-0" value="PermissionGrant" style="swimlane;fontStyle=1;align=center;verticalAlign=top;childLayout=stackLayout;horizontal=1;startSize=26;horizontalStack=0;resizeParent=1;resizeParentMax=0;resizeLast=0;collapsible=1;marginBottom=0;fontColor=#000000;" vertex="1" parent="WIyWlLk6GJQsqaUBKTNV-1">
          <mxGeometry x="110" y="110" width="210" height="118" as="geometry" />
        </mxCell>
        <mxCell id="nJoEVqWm0-G-OqzpJAwN-1" value="+ TenantId: Guid?&#xa;+ Name : string&#xa;+ ProviderName :string&#xa;+ ProviderKey: string" style="text;strokeColor=none;fillColor=none;align=left;verticalAlign=top;spacingLeft=4;spacingRight=4;overflow=hidden;rotatable=0;points=[[0,0.5],[1,0.5]];portConstraint=eastwest;fontColor=#000000;" vertex="1" parent="nJoEVqWm0-G-OqzpJAwN-0">
          <mxGeometry y="26" width="210" height="84" as="geometry" />
        </mxCell>
        <mxCell id="nJoEVqWm0-G-OqzpJAwN-2" value="" style="line;strokeWidth=1;fillColor=none;align=left;verticalAlign=middle;spacingTop=-1;spacingLeft=3;spacingRight=3;rotatable=0;labelPosition=right;points=[];portConstraint=eastwest;fontColor=#000000;" vertex="1" parent="nJoEVqWm0-G-OqzpJAwN-0">
          <mxGeometry y="110" width="210" height="8" as="geometry" />
        </mxCell>
        <mxCell id="nJoEVqWm0-G-OqzpJAwN-4" value="«abstract»&lt;br&gt;&lt;b&gt;BaseAggregateRoot&lt;/b&gt;" style="html=1;fontColor=#000000;" vertex="1" parent="WIyWlLk6GJQsqaUBKTNV-1">
          <mxGeometry x="460" y="110" width="136" height="50" as="geometry" />
        </mxCell>
        <mxCell id="nJoEVqWm0-G-OqzpJAwN-5" value="«interface»&lt;br&gt;&lt;b&gt;IMultiTenant&lt;/b&gt;" style="html=1;fontColor=#000000;" vertex="1" parent="WIyWlLk6GJQsqaUBKTNV-1">
          <mxGeometry x="460" y="178" width="136" height="50" as="geometry" />
        </mxCell>
        <mxCell id="nJoEVqWm0-G-OqzpJAwN-6" style="edgeStyle=orthogonalEdgeStyle;rounded=0;orthogonalLoop=1;jettySize=auto;html=1;exitX=1;exitY=0.5;exitDx=0;exitDy=0;entryX=0;entryY=0.5;entryDx=0;entryDy=0;fontColor=#000000;endArrow=block;endFill=0;endSize=14;" edge="1" parent="WIyWlLk6GJQsqaUBKTNV-1" source="nJoEVqWm0-G-OqzpJAwN-1" target="nJoEVqWm0-G-OqzpJAwN-4">
          <mxGeometry relative="1" as="geometry" />
        </mxCell>
        <mxCell id="nJoEVqWm0-G-OqzpJAwN-7" style="edgeStyle=orthogonalEdgeStyle;rounded=0;orthogonalLoop=1;jettySize=auto;html=1;fontColor=#000000;endArrow=block;endFill=0;endSize=14;" edge="1" parent="WIyWlLk6GJQsqaUBKTNV-1" source="nJoEVqWm0-G-OqzpJAwN-1" target="nJoEVqWm0-G-OqzpJAwN-5">
          <mxGeometry relative="1" as="geometry" />
        </mxCell>
      </root>
    </mxGraphModel>
  </diagram>
</mxfile>
